<svg width="16" height="15" viewBox="0 0 16 15" fill="none" xmlns="http://www.w3.org/2000/svg">
<path d="M10 9.66016V8.16016H16V12.6602C16 13.4727 15.2812 14.1602 14.5 14.1602H1.5C0.6875 14.1602 0 13.4727 0 12.6602V8.16016H6V9.66016C6 9.94141 6.21875 10.1602 6.5 10.1602H9.5C9.75 10.1602 10 9.94141 10 9.66016ZM14.5 3.16016C15.2812 3.16016 16 3.87891 16 4.66016V7.16016H0V4.66016C0 3.87891 0.6875 3.16016 1.5 3.16016H4V1.66016C4 0.878906 4.6875 0.160156 5.5 0.160156H10.5C11.2812 0.160156 12 0.878906 12 1.66016V3.16016H14.5ZM10 3.16016V2.16016H6V3.16016H10Z" fill="#000"/>
</svg>
