<svg width="16" height="17" viewBox="0 0 16 17" fill="none" xmlns="http://www.w3.org/2000/svg">
<path d="M16 5.69141C16 8.72266 13.5312 11.1602 10.5 11.1602C10.125 11.1602 9.78125 11.1289 9.46875 11.0664L8.71875 11.9102C8.5625 12.0664 8.375 12.1602 8.15625 12.1602H7V13.4102C7 13.8477 6.65625 14.1602 6.25 14.1602H5V15.4102C5 15.8477 4.65625 16.1602 4.25 16.1602H0.75C0.3125 16.1602 0 15.8477 0 15.4102V12.9727C0 12.7852 0.0625 12.5977 0.21875 12.4414L5.25 7.41016C5.09375 6.84766 5 6.28516 5 5.66016C5 2.62891 7.4375 0.191406 10.4688 0.160156C13.5312 0.160156 16 2.62891 16 5.69141ZM10.5 4.16016C10.5 5.00391 11.1562 5.66016 12 5.66016C12.8125 5.66016 13.5 5.00391 13.5 4.16016C13.5 3.34766 12.8125 2.66016 12 2.66016C11.1562 2.66016 10.5 3.34766 10.5 4.16016Z" fill="#232323"/>
</svg>
