<svg width="18" height="15" viewBox="0 0 18 15" fill="none" xmlns="http://www.w3.org/2000/svg">
<path d="M16.5 0.160156C17.3125 0.160156 18 0.847656 18 1.66016V12.6602C18 13.5039 17.3125 14.1602 16.5 14.1602H1.5C0.65625 14.1602 0 13.5039 0 12.6602V1.66016C0 0.847656 0.65625 0.160156 1.5 0.160156H16.5ZM16.5 12.6602V3.66016H1.5V12.6602H2.5C2.46875 12.5352 2.5 12.7852 2.5 11.9727C2.5 10.9727 3.4375 10.1602 4.59375 10.1602C4.9375 10.1602 5.15625 10.4102 6 10.4102C6.8125 10.4102 7.0625 10.1602 7.375 10.1602C8.53125 10.1602 9.5 10.9727 9.5 11.9727C9.5 12.7852 9.5 12.5352 9.46875 12.6602H16.5ZM11.25 10.1602C11.0938 10.1602 11 10.0664 11 9.91016V9.41016C11 9.28516 11.0938 9.16016 11.25 9.16016H14.75C14.875 9.16016 15 9.28516 15 9.41016V9.91016C15 10.0664 14.875 10.1602 14.75 10.1602H11.25ZM11.25 8.16016C11.0938 8.16016 11 8.06641 11 7.91016V7.41016C11 7.28516 11.0938 7.16016 11.25 7.16016H14.75C14.875 7.16016 15 7.28516 15 7.41016V7.91016C15 8.06641 14.875 8.16016 14.75 8.16016H11.25ZM11.25 6.16016C11.0938 6.16016 11 6.06641 11 5.91016V5.41016C11 5.28516 11.0938 5.16016 11.25 5.16016H14.75C14.875 5.16016 15 5.28516 15 5.41016V5.91016C15 6.06641 14.875 6.16016 14.75 6.16016H11.25ZM6 9.16016C4.875 9.16016 4 8.28516 4 7.16016C4 6.06641 4.875 5.16016 6 5.16016C7.09375 5.16016 8 6.06641 8 7.16016C8 8.28516 7.09375 9.16016 6 9.16016Z" fill="#232323"/>
</svg>
