<svg width="15" height="17" viewBox="0 0 15 17" fill="none" xmlns="http://www.w3.org/2000/svg">
<path d="M14.7188 11.5039C14.9062 11.6914 15 11.9414 15 12.1602C14.9688 12.6914 14.5938 13.1602 13.9688 13.1602H2C1.375 13.1602 1 12.6914 1 12.1602C0.96875 11.9414 1.0625 11.6914 1.25 11.5039C1.84375 10.8477 3 9.87891 3 6.66016C3 4.25391 4.6875 2.31641 7 1.81641V1.16016C7 0.628906 7.4375 0.160156 8 0.160156C8.53125 0.160156 8.96875 0.628906 8.96875 1.16016V1.81641C11.2812 2.31641 12.9688 4.25391 12.9688 6.66016C12.9688 9.87891 14.125 10.8477 14.7188 11.5039ZM3.09375 11.6602H12.875C12.2188 10.8164 11.5 9.34766 11.4688 6.69141C11.4688 6.69141 11.5 6.69141 11.5 6.66016C11.5 4.75391 9.90625 3.16016 8 3.16016C6.0625 3.16016 4.5 4.75391 4.5 6.66016C4.5 6.69141 4.5 6.69141 4.5 6.69141C4.46875 9.34766 3.75 10.8164 3.09375 11.6602ZM8 16.1602C6.875 16.1602 6 15.2852 6 14.1602H9.96875C9.96875 15.2852 9.09375 16.1602 8 16.1602Z" fill="#232323"/>
</svg>
