<svg width="16" height="14" viewBox="0 0 16 14" fill="none" xmlns="http://www.w3.org/2000/svg">
<path d="M15.5312 7.69141L10.2812 12.9414C9.8125 13.4102 9 13.0977 9 12.4102V9.41016H4.75C4.3125 9.41016 4 9.09766 4 8.66016V5.66016C4 5.25391 4.3125 4.91016 4.75 4.91016H9V1.91016C9 1.25391 9.78125 0.910156 10.2812 1.37891L15.5312 6.62891C15.8125 6.94141 15.8125 7.41016 15.5312 7.69141ZM6 12.7852C6 13.0039 5.8125 13.1602 5.625 13.1602H3C1.34375 13.1602 0 11.8164 0 10.1602V4.16016C0 2.50391 1.34375 1.16016 3 1.16016H5.625C5.8125 1.16016 6 1.34766 6 1.53516V2.78516C6 3.00391 5.8125 3.16016 5.625 3.16016H3C2.4375 3.16016 2 3.62891 2 4.16016V10.1602C2 10.7227 2.4375 11.1602 3 11.1602H5.625C5.8125 11.1602 6 11.3477 6 11.5352V12.7852Z" fill="#232323"/>
</svg>
