<svg width="14" height="17" viewBox="0 0 14 17" fill="none" xmlns="http://www.w3.org/2000/svg">
<path d="M9.78125 9.66016C12.0938 9.66016 14 11.5664 14 13.8789V14.6602C14 15.5039 13.3125 16.1602 12.5 16.1602H1.5C0.65625 16.1602 0 15.5039 0 14.6602V13.8789C0 11.5664 1.875 9.66016 4.1875 9.66016C5.09375 9.66016 5.5 10.1602 7 10.1602C8.46875 10.1602 8.875 9.66016 9.78125 9.66016ZM12.5 14.6602V13.8789C12.5 12.3789 11.2812 11.1602 9.78125 11.1602C9.3125 11.1602 8.59375 11.6602 7 11.6602C5.375 11.6602 4.65625 11.1602 4.1875 11.1602C2.6875 11.1602 1.5 12.3789 1.5 13.8789V14.6602H12.5ZM7 9.16016C4.5 9.16016 2.5 7.16016 2.5 4.66016C2.5 2.19141 4.5 0.160156 7 0.160156C9.46875 0.160156 11.5 2.19141 11.5 4.66016C11.5 7.16016 9.46875 9.16016 7 9.16016ZM7 1.66016C5.34375 1.66016 4 3.03516 4 4.66016C4 6.31641 5.34375 7.66016 7 7.66016C8.625 7.66016 10 6.31641 10 4.66016C10 3.03516 8.625 1.66016 7 1.66016Z" fill="#232323"/>
</svg>
