<svg width="12" height="17" viewBox="0 0 12 17" fill="none" xmlns="http://www.w3.org/2000/svg">
<path d="M9 7.91016V8.78516C9 9.00391 8.8125 9.16016 8.625 9.16016H3.375C3.15625 9.16016 3 9.00391 3 8.78516V7.91016C3 7.72266 3.15625 7.53516 3.375 7.53516H8.625C8.8125 7.53516 9 7.72266 9 7.91016ZM8.625 10.1602C8.8125 10.1602 9 10.3477 9 10.5352V11.4102C9 11.6289 8.8125 11.7852 8.625 11.7852H3.375C3.15625 11.7852 3 11.6289 3 11.4102V10.5352C3 10.3477 3.15625 10.1602 3.375 10.1602H8.625ZM12 4.28516V14.6602C12 15.5039 11.3125 16.1602 10.5 16.1602H1.5C0.65625 16.1602 0 15.5039 0 14.6602V1.66016C0 0.847656 0.65625 0.160156 1.5 0.160156H7.875C8.25 0.160156 8.65625 0.347656 8.9375 0.628906L11.5312 3.22266C11.8125 3.50391 12 3.91016 12 4.28516ZM8 1.78516V4.16016H10.375L8 1.78516ZM10.5 14.6602V5.66016H7.25C6.8125 5.66016 6.5 5.34766 6.5 4.91016V1.66016H1.5V14.6602H10.5Z" fill="#232323"/>
</svg>
