<svg width="18" height="16" viewBox="0 0 18 16" fill="none" xmlns="http://www.w3.org/2000/svg">
<path d="M15.3125 2.19141C17.6562 4.16016 17.3125 7.37891 15.6562 9.09766L10.1562 14.6914C9.84375 15.0039 9.4375 15.1914 9 15.1914C8.53125 15.1914 8.125 15.0039 7.8125 14.6914L2.34375 9.09766C0.65625 7.37891 0.3125 4.16016 2.65625 2.19141C4.46875 0.660156 7.25 0.878906 9 2.66016C10.7188 0.878906 13.5 0.660156 15.3125 2.19141ZM14.5625 8.03516C15.7188 6.87891 15.9375 4.69141 14.3438 3.31641C13.125 2.31641 11.25 2.47266 10.0938 3.66016L9 4.78516L7.90625 3.66016C6.71875 2.47266 4.84375 2.31641 3.625 3.34766C2.03125 4.69141 2.25 6.87891 3.40625 8.03516L8.875 13.6289C8.96875 13.6914 9.03125 13.6914 9.09375 13.6289L14.5625 8.03516Z" fill="#232323"/>
</svg>
